<svg width="137" height="208" viewBox="0 0 137 208" fill="none" xmlns="http://www.w3.org/2000/svg">
<path d="M112.673 27.213C104.564 17.5091 96.2414 12.6572 87.7056 12.6572C81.0192 12.6572 75.3998 14.9074 70.8474 19.4077C66.2949 23.908 64.0187 29.2522 64.0187 35.4402C64.0187 41.6281 65.797 46.7613 69.3536 50.8398C73.0524 54.9182 77.6049 58.2934 83.0109 60.9655C88.4169 63.6376 94.2497 66.8019 100.509 70.4584C106.769 73.9743 112.602 77.7011 118.008 81.6389C123.414 85.4361 127.895 90.7099 131.452 97.4604C135.151 104.07 137 112.227 137 121.931C137 131.635 135.079 141.268 131.238 150.832C127.397 160.395 122.347 168.622 116.087 175.513C109.828 182.404 102.643 188.311 94.5343 193.233C78.3162 203.078 61.4579 208 43.9595 208C32.1516 208 21.9086 205.117 13.2305 199.351C4.41018 193.585 0 187.045 0 179.732C0 172.419 3.48546 168.763 10.4564 168.763C13.1594 168.763 18.6366 172.49 26.8878 179.943C30.0177 182.756 34.2856 185.287 39.6916 187.538C45.2399 189.928 51.3572 191.124 58.0436 191.124C64.8723 191.124 71.9855 189.858 79.3832 187.327C86.7809 184.795 93.6807 181.139 100.083 176.357C106.627 171.716 111.89 165.458 115.874 157.582C119.857 149.847 121.849 141.198 121.849 131.635C121.849 121.931 119.288 113.704 114.167 106.953C109.045 100.203 102.857 94.929 95.6013 91.1319C88.3458 87.3347 81.0903 83.6782 73.8349 80.1623C66.5794 76.5058 60.391 71.8648 55.2695 66.2393C50.148 60.6139 47.5872 53.7931 47.5872 45.7769C47.5872 37.62 49.3655 30.3773 52.9221 24.0487C56.621 17.7201 61.2445 12.9385 66.7928 9.70385C77.3204 3.23462 87.7767 0 98.162 0C108.547 0 117.012 2.3908 123.556 7.17241C130.1 11.954 133.372 17.4388 133.372 23.6268C133.372 27.2833 132.448 30.096 130.598 32.0649C128.749 33.8932 126.615 34.8073 124.196 34.8073C121.778 34.8073 119.715 34.1744 118.008 32.9087C116.443 31.5024 114.665 29.6038 112.673 27.213Z" fill="#0E0F0C"/>
<path d="M68.3522 101.261L60.0524 118.068L41.4827 120.771C38.1526 121.254 36.818 125.354 39.233 127.702L52.6677 140.777L49.4901 159.246C48.9182 162.585 52.4389 165.085 55.3877 163.524L72 154.803L88.6123 163.524C91.5611 165.073 95.0818 162.585 94.5099 159.246L91.3323 140.777L104.767 127.702C107.182 125.354 105.847 121.254 102.517 120.771L83.9476 118.068L75.6479 101.261C74.1607 98.2654 69.852 98.2273 68.3522 101.261Z" fill="#9FE870"/>
<path d="M45.6052 86.8697L42.4318 93.3337L35.3316 94.3736C34.0583 94.5591 33.5481 96.1361 34.4714 97.0393L39.6082 102.068L38.3933 109.172C38.1746 110.456 39.5208 111.417 40.6482 110.817L47 107.463L53.3518 110.817C54.4792 111.413 55.8254 110.456 55.6067 109.172L54.3918 102.068L59.5286 97.0393C60.4519 96.1361 59.9417 94.5591 58.6684 94.3736L51.5682 93.3337L48.3948 86.8697C47.8262 85.7175 46.1787 85.7028 45.6052 86.8697Z" fill="#9FE870"/>
<path d="M24.7297 129.113L20.7019 137.387L11.6901 138.718C10.074 138.956 9.42639 140.974 10.5983 142.13L17.1181 148.567L15.5761 157.66C15.2985 159.303 17.0071 160.534 18.4381 159.766L26.5 155.472L34.5619 159.766C35.9929 160.528 37.7015 159.303 37.4239 157.66L35.8819 148.567L42.4017 142.13C43.5736 140.974 42.926 138.956 41.3099 138.718L32.2981 137.387L28.2703 129.113C27.5486 127.638 25.4576 127.62 24.7297 129.113Z" fill="#9FE870"/>
</svg>
